{
    "asset" : {
        "copyright" : "loafbrr",
        "generator" : "Khronos glTF Blender I/O v1.7.33",
        "version" : "2.0"
    },
    "scene" : 0,
    "scenes" : [
        {
            "name" : "Scene",
            "nodes" : [
                0
            ]
        }
    ],
    "nodes" : [
        {
            "mesh" : 0,
            "name" : "CRTTV"
        }
    ],
    "materials" : [
        {
            "doubleSided" : true,
            "name" : "CRTV",
            "normalTexture" : {
                "index" : 0
            },
            "pbrMetallicRoughness" : {
                "baseColorTexture" : {
                    "index" : 1
                },
                "metallicRoughnessTexture" : {
                    "index" : 2
                }
            }
        },
        {
            "doubleSided" : true,
            "name" : "Screen",
            "pbrMetallicRoughness" : {
                "baseColorFactor" : [
                    0.005131565034389496,
                    0.011012361384928226,
                    0.005798659287393093,
                    1
                ],
                "metallicFactor" : 0,
                "roughnessFactor" : 0.3227272629737854
            }
        }
    ],
    "meshes" : [
        {
            "name" : "Cylinder.062",
            "primitives" : [
                {
                    "attributes" : {
                        "POSITION" : 0,
                        "NORMAL" : 1,
                        "TEXCOORD_0" : 2
                    },
                    "indices" : 3,
                    "material" : 0
                },
                {
                    "attributes" : {
                        "POSITION" : 4,
                        "NORMAL" : 5,
                        "TEXCOORD_0" : 6
                    },
                    "indices" : 7,
                    "material" : 1
                }
            ]
        }
    ],
    "textures" : [
        {
            "sampler" : 0,
            "source" : 0
        },
        {
            "sampler" : 0,
            "source" : 1
        },
        {
            "sampler" : 0,
            "source" : 2
        }
    ],
    "images" : [
        {
            "bufferView" : 4,
            "mimeType" : "image/png",
            "name" : "CRTTV_Normal"
        },
        {
            "bufferView" : 5,
            "mimeType" : "image/png",
            "name" : "CRTTV_Albedo"
        },
        {
            "bufferView" : 6,
            "mimeType" : "image/png",
            "name" : "CRTTV_Metalness-CRTTV_Roughness"
        }
    ],
    "accessors" : [
        {
            "bufferView" : 0,
            "componentType" : 5126,
            "count" : 2164,
            "max" : [
                0.35266420245170593,
                0.5411834120750427,
                0.18973195552825928
            ],
            "min" : [
                -0.29547223448753357,
                -0.00587542075663805,
                -0.8300011157989502
            ],
            "type" : "VEC3"
        },
        {
            "bufferView" : 1,
            "componentType" : 5126,
            "count" : 2164,
            "type" : "VEC3"
        },
        {
            "bufferView" : 2,
            "componentType" : 5126,
            "count" : 2164,
            "type" : "VEC2"
        },
        {
            "bufferView" : 3,
            "componentType" : 5123,
            "count" : 4770,
            "type" : "SCALAR"
        },
        {
            "bufferView" : 7,
            "componentType" : 5126,
            "count" : 136,
            "max" : [
                0.21280914545059204,
                0.4987863600254059,
                0.1835411638021469
            ],
            "min" : [
                -0.21280917525291443,
                0.07316800951957703,
                0.15571005642414093
            ],
            "type" : "VEC3"
        },
        {
            "bufferView" : 8,
            "componentType" : 5126,
            "count" : 136,
            "type" : "VEC3"
        },
        {
            "bufferView" : 9,
            "componentType" : 5126,
            "count" : 136,
            "type" : "VEC2"
        },
        {
            "bufferView" : 10,
            "componentType" : 5123,
            "count" : 216,
            "type" : "SCALAR"
        }
    ],
    "bufferViews" : [
        {
            "buffer" : 0,
            "byteLength" : 25968,
            "byteOffset" : 0
        },
        {
            "buffer" : 0,
            "byteLength" : 25968,
            "byteOffset" : 25968
        },
        {
            "buffer" : 0,
            "byteLength" : 17312,
            "byteOffset" : 51936
        },
        {
            "buffer" : 0,
            "byteLength" : 9540,
            "byteOffset" : 69248
        },
        {
            "buffer" : 0,
            "byteLength" : 230456,
            "byteOffset" : 78788
        },
        {
            "buffer" : 0,
            "byteLength" : 238834,
            "byteOffset" : 309244
        },
        {
            "buffer" : 0,
            "byteLength" : 269655,
            "byteOffset" : 548080
        },
        {
            "buffer" : 0,
            "byteLength" : 1632,
            "byteOffset" : 817736
        },
        {
            "buffer" : 0,
            "byteLength" : 1632,
            "byteOffset" : 819368
        },
        {
            "buffer" : 0,
            "byteLength" : 1088,
            "byteOffset" : 821000
        },
        {
            "buffer" : 0,
            "byteLength" : 432,
            "byteOffset" : 822088
        }
    ],
    "samplers" : [
        {
            "magFilter" : 9729,
            "minFilter" : 9987
        }
    ],
    "buffers" : [
        {
            "byteLength" : 822520,
            "uri" : "data:application/octet-stream;base64,"
        }
    ]
}
