{
    "asset" : {
        "copyright" : "loafbrr",
        "generator" : "Khronos glTF Blender I/O v1.7.33",
        "version" : "2.0"
    },
    "scene" : 0,
    "scenes" : [
        {
            "name" : "Scene",
            "nodes" : [
                0
            ]
        }
    ],
    "nodes" : [
        {
            "mesh" : 0,
            "name" : "CRTVHSTV"
        }
    ],
    "materials" : [
        {
            "doubleSided" : true,
            "name" : "CRTVHS",
            "normalTexture" : {
                "index" : 0
            },
            "pbrMetallicRoughness" : {
                "baseColorTexture" : {
                    "index" : 1
                },
                "metallicRoughnessTexture" : {
                    "index" : 2
                }
            }
        },
        {
            "doubleSided" : true,
            "name" : "Screen",
            "pbrMetallicRoughness" : {
                "baseColorFactor" : [
                    0.005131565034389496,
                    0.011012361384928226,
                    0.005798659287393093,
                    1
                ],
                "metallicFactor" : 0,
                "roughnessFactor" : 0.3227272629737854
            }
        }
    ],
    "meshes" : [
        {
            "name" : "Cube.016",
            "primitives" : [
                {
                    "attributes" : {
                        "POSITION" : 0,
                        "NORMAL" : 1,
                        "TEXCOORD_0" : 2
                    },
                    "indices" : 3,
                    "material" : 0
                },
                {
                    "attributes" : {
                        "POSITION" : 4,
                        "NORMAL" : 5,
                        "TEXCOORD_0" : 6
                    },
                    "indices" : 7,
                    "material" : 1
                }
            ]
        }
    ],
    "textures" : [
        {
            "sampler" : 0,
            "source" : 0
        },
        {
            "sampler" : 0,
            "source" : 1
        },
        {
            "sampler" : 0,
            "source" : 2
        }
    ],
    "images" : [
        {
            "bufferView" : 4,
            "mimeType" : "image/png",
            "name" : "CRTVHSTV_Normal"
        },
        {
            "bufferView" : 5,
            "mimeType" : "image/png",
            "name" : "CRTVHSTV_Albedo"
        },
        {
            "bufferView" : 6,
            "mimeType" : "image/png",
            "name" : "CRTVHSTV_Metalness-CRTVHSTV_Roughness"
        }
    ],
    "accessors" : [
        {
            "bufferView" : 0,
            "componentType" : 5126,
            "count" : 1895,
            "max" : [
                0.4258913993835449,
                0.574213981628418,
                0.2721208930015564
            ],
            "min" : [
                -0.2569701075553894,
                -0.005875369068235159,
                -0.7951104044914246
            ],
            "type" : "VEC3"
        },
        {
            "bufferView" : 1,
            "componentType" : 5126,
            "count" : 1895,
            "type" : "VEC3"
        },
        {
            "bufferView" : 2,
            "componentType" : 5126,
            "count" : 1895,
            "type" : "VEC2"
        },
        {
            "bufferView" : 3,
            "componentType" : 5123,
            "count" : 4200,
            "type" : "SCALAR"
        },
        {
            "bufferView" : 7,
            "componentType" : 5126,
            "count" : 49,
            "max" : [
                0.19085779786109924,
                0.5098655819892883,
                0.2593643069267273
            ],
            "min" : [
                -0.19085779786109924,
                0.12814998626708984,
                0.23521649837493896
            ],
            "type" : "VEC3"
        },
        {
            "bufferView" : 8,
            "componentType" : 5126,
            "count" : 49,
            "type" : "VEC3"
        },
        {
            "bufferView" : 9,
            "componentType" : 5126,
            "count" : 49,
            "type" : "VEC2"
        },
        {
            "bufferView" : 10,
            "componentType" : 5123,
            "count" : 216,
            "type" : "SCALAR"
        }
    ],
    "bufferViews" : [
        {
            "buffer" : 0,
            "byteLength" : 22740,
            "byteOffset" : 0
        },
        {
            "buffer" : 0,
            "byteLength" : 22740,
            "byteOffset" : 22740
        },
        {
            "buffer" : 0,
            "byteLength" : 15160,
            "byteOffset" : 45480
        },
        {
            "buffer" : 0,
            "byteLength" : 8400,
            "byteOffset" : 60640
        },
        {
            "buffer" : 0,
            "byteLength" : 198314,
            "byteOffset" : 69040
        },
        {
            "buffer" : 0,
            "byteLength" : 274410,
            "byteOffset" : 267356
        },
        {
            "buffer" : 0,
            "byteLength" : 276904,
            "byteOffset" : 541768
        },
        {
            "buffer" : 0,
            "byteLength" : 588,
            "byteOffset" : 818672
        },
        {
            "buffer" : 0,
            "byteLength" : 588,
            "byteOffset" : 819260
        },
        {
            "buffer" : 0,
            "byteLength" : 392,
            "byteOffset" : 819848
        },
        {
            "buffer" : 0,
            "byteLength" : 432,
            "byteOffset" : 820240
        }
    ],
    "samplers" : [
        {
            "magFilter" : 9729,
            "minFilter" : 9987
        }
    ],
    "buffers" : [
        {
            "byteLength" : 820672,
            "uri" : "data:application/octet-stream;base64,"
        }
    ]
}
