{
    "asset" : {
        "copyright" : "loafbrr",
        "generator" : "Khronos glTF Blender I/O v1.7.33",
        "version" : "2.0"
    },
    "scene" : 0,
    "scenes" : [
        {
            "name" : "Scene",
            "nodes" : [
                0
            ]
        }
    ],
    "nodes" : [
        {
            "mesh" : 0,
            "name" : "Remote"
        }
    ],
    "materials" : [
        {
            "doubleSided" : true,
            "name" : "Remote",
            "normalTexture" : {
                "index" : 0
            },
            "pbrMetallicRoughness" : {
                "baseColorTexture" : {
                    "index" : 1
                },
                "metallicRoughnessTexture" : {
                    "index" : 2
                }
            }
        }
    ],
    "meshes" : [
        {
            "name" : "Cube.001",
            "primitives" : [
                {
                    "attributes" : {
                        "POSITION" : 0,
                        "NORMAL" : 1,
                        "TEXCOORD_0" : 2
                    },
                    "indices" : 3,
                    "material" : 0
                }
            ]
        }
    ],
    "textures" : [
        {
            "sampler" : 0,
            "source" : 0
        },
        {
            "sampler" : 0,
            "source" : 1
        },
        {
            "sampler" : 0,
            "source" : 2
        }
    ],
    "images" : [
        {
            "bufferView" : 4,
            "mimeType" : "image/png",
            "name" : "Remote_Normal"
        },
        {
            "bufferView" : 5,
            "mimeType" : "image/png",
            "name" : "Remote_Albedo"
        },
        {
            "bufferView" : 6,
            "mimeType" : "image/png",
            "name" : "Remote_Metalness-Remote_Roughness"
        }
    ],
    "accessors" : [
        {
            "bufferView" : 0,
            "componentType" : 5126,
            "count" : 601,
            "max" : [
                0.03515969589352608,
                0.03149361163377762,
                0.1566389501094818
            ],
            "min" : [
                -0.03515968844294548,
                -5.5904603613043946e-08,
                -0.09757911413908005
            ],
            "type" : "VEC3"
        },
        {
            "bufferView" : 1,
            "componentType" : 5126,
            "count" : 601,
            "type" : "VEC3"
        },
        {
            "bufferView" : 2,
            "componentType" : 5126,
            "count" : 601,
            "type" : "VEC2"
        },
        {
            "bufferView" : 3,
            "componentType" : 5123,
            "count" : 1194,
            "type" : "SCALAR"
        }
    ],
    "bufferViews" : [
        {
            "buffer" : 0,
            "byteLength" : 7212,
            "byteOffset" : 0
        },
        {
            "buffer" : 0,
            "byteLength" : 7212,
            "byteOffset" : 7212
        },
        {
            "buffer" : 0,
            "byteLength" : 4808,
            "byteOffset" : 14424
        },
        {
            "buffer" : 0,
            "byteLength" : 2388,
            "byteOffset" : 19232
        },
        {
            "buffer" : 0,
            "byteLength" : 299375,
            "byteOffset" : 21620
        },
        {
            "buffer" : 0,
            "byteLength" : 476631,
            "byteOffset" : 320996
        },
        {
            "buffer" : 0,
            "byteLength" : 370923,
            "byteOffset" : 797628
        }
    ],
    "samplers" : [
        {
            "magFilter" : 9729,
            "minFilter" : 9987
        }
    ],
    "buffers" : [
        {
            "byteLength" : 1168552,
            "uri" : "data:application/octet-stream;base64,"
        }
    ]
}
