{
    "asset" : {
        "copyright" : "loafbrr",
        "generator" : "Khronos glTF Blender I/O v1.7.33",
        "version" : "2.0"
    },
    "scene" : 0,
    "scenes" : [
        {
            "name" : "Scene",
            "nodes" : [
                0
            ]
        }
    ],
    "nodes" : [
        {
            "mesh" : 0,
            "name" : "VHS"
        }
    ],
    "materials" : [
        {
            "doubleSided" : true,
            "name" : "VHSPlayer",
            "normalTexture" : {
                "index" : 0
            },
            "pbrMetallicRoughness" : {
                "baseColorTexture" : {
                    "index" : 1
                },
                "metallicRoughnessTexture" : {
                    "index" : 2
                }
            }
        }
    ],
    "meshes" : [
        {
            "name" : "Cube.106",
            "primitives" : [
                {
                    "attributes" : {
                        "POSITION" : 0,
                        "NORMAL" : 1,
                        "TEXCOORD_0" : 2
                    },
                    "indices" : 3,
                    "material" : 0
                }
            ]
        }
    ],
    "textures" : [
        {
            "sampler" : 0,
            "source" : 0
        },
        {
            "sampler" : 0,
            "source" : 1
        },
        {
            "sampler" : 0,
            "source" : 2
        }
    ],
    "images" : [
        {
            "bufferView" : 4,
            "mimeType" : "image/png",
            "name" : "VHSBox_Normal"
        },
        {
            "bufferView" : 5,
            "mimeType" : "image/png",
            "name" : "VHSBox_Albedo"
        },
        {
            "bufferView" : 6,
            "mimeType" : "image/png",
            "name" : "VHSBox_Metalness-VHSBox_Roughness"
        }
    ],
    "accessors" : [
        {
            "bufferView" : 0,
            "componentType" : 5126,
            "count" : 2037,
            "max" : [
                0.4102793037891388,
                0.11301066726446152,
                0.2712615430355072
            ],
            "min" : [
                -0.3703468143939972,
                -0.005875362548977137,
                -0.7516036629676819
            ],
            "type" : "VEC3"
        },
        {
            "bufferView" : 1,
            "componentType" : 5126,
            "count" : 2037,
            "type" : "VEC3"
        },
        {
            "bufferView" : 2,
            "componentType" : 5126,
            "count" : 2037,
            "type" : "VEC2"
        },
        {
            "bufferView" : 3,
            "componentType" : 5123,
            "count" : 4446,
            "type" : "SCALAR"
        }
    ],
    "bufferViews" : [
        {
            "buffer" : 0,
            "byteLength" : 24444,
            "byteOffset" : 0
        },
        {
            "buffer" : 0,
            "byteLength" : 24444,
            "byteOffset" : 24444
        },
        {
            "buffer" : 0,
            "byteLength" : 16296,
            "byteOffset" : 48888
        },
        {
            "buffer" : 0,
            "byteLength" : 8892,
            "byteOffset" : 65184
        },
        {
            "buffer" : 0,
            "byteLength" : 177226,
            "byteOffset" : 74076
        },
        {
            "buffer" : 0,
            "byteLength" : 260620,
            "byteOffset" : 251304
        },
        {
            "buffer" : 0,
            "byteLength" : 301103,
            "byteOffset" : 511924
        }
    ],
    "samplers" : [
        {
            "magFilter" : 9729,
            "minFilter" : 9987
        }
    ],
    "buffers" : [
        {
            "byteLength" : 813028,
            "uri" : "data:application/octet-stream;base64,"
        }
    ]
}
